<?xml version="1.0" encoding="utf-8"?>
<!-- Generator: Adobe Illustrator 28.0.0, SVG Export Plug-In . SVG Version: 6.00 Build 0)  -->
<svg version="1.1" id="light" xmlns="http://www.w3.org/2000/svg" xmlns:xlink="http://www.w3.org/1999/xlink" x="0px" y="0px"
	 viewBox="0 0 612 612" style="enable-background:new 0 0 612 612;" xml:space="preserve">
<style type="text/css">
	.st0{fill:#D5DAF0;}
	.st1{fill:#4338CA;}
</style>
<path id="BG_00000049220585493823891370000004194630202842930059_" class="st0" d="M492.7,612.5H119.3
	c-66.2,0-119.8-53.6-119.8-119.8V119.3C-0.5,53.1,53.1-0.5,119.3-0.5h373.4c66.2,0,119.8,53.6,119.8,119.8v373.4
	C612.5,558.9,558.9,612.5,492.7,612.5z"/>
<g id="O_00000019676947283240457140000007545137495317002937_">
	<path class="st1" d="M591.6,306.2c0,41.9-7.2,79.6-21.7,113.2c-14.4,33.6-34.4,62-59.9,85.4c-25.5,23.3-55.7,41.3-90.6,53.8
		s-72.7,18.8-113.4,18.8s-78.5-6.3-113.4-18.8s-65.1-30.4-90.6-53.8c-25.5-23.3-45.5-51.8-59.9-85.4s-21.7-71.3-21.7-113.2
		c0-42.6,7.2-80.7,21.5-114.3s34.2-62,59.6-85.2s55.5-41,90.4-53.4S264.8,34.7,306,34.7s79.2,6.2,114.1,18.6s65,30.2,90.4,53.4
		s45.2,51.6,59.6,85.2C584.4,225.5,591.6,263.6,591.6,306.2z M445.7,306.2c0-15.9-0.7-32.1-2.2-48.7c-1.4-16.6-4.1-32.7-7.9-48.4
		c-3.9-15.6-9.1-30.3-15.7-44s-15.1-25.7-25.5-35.9S371.6,110.9,357,105c-14.6-5.9-31.6-8.8-51.1-8.8c-19.7,0-37,3-51.6,8.8
		c-14.7,5.9-27.2,13.9-37.5,24c-10.4,10.1-18.8,22-25.3,35.7s-11.6,28.3-15.3,43.9c-3.7,15.5-6.3,31.7-7.8,48.4
		c-1.4,16.7-2.2,33.2-2.2,49.3c0,15.9,0.7,32.1,2.2,48.7c1.4,16.6,4.1,32.7,7.9,48.2c3.8,15.5,9.1,30.1,15.7,43.9
		c6.6,13.7,15.1,25.7,25.5,35.9c10.3,10.2,22.8,18.4,37.4,24.4c14.6,6,31.6,9,51.1,9c19,0,35.6-3.1,49.8-9.2
		c14.2-6.1,26.5-14.4,36.8-24.9s19-22.6,25.8-36.5c6.9-13.8,12.3-28.5,16.2-44c4-15.5,6.8-31.5,8.5-47.8
		C444.9,337.5,445.7,321.6,445.7,306.2z"/>
</g>
</svg>
